<svg xmlns="http://www.w3.org/2000/svg" xmlns:xlink="http://www.w3.org/1999/xlink" xmlns:xodm="http://www.corel.com/coreldraw/odm/2003" xml:space="preserve" version="1.1" style="shape-rendering:geometricPrecision;text-rendering:geometricPrecision;image-rendering:optimizeQuality;" viewBox="0 0 320 399.9875" x="0px" y="0px" fill-rule="evenodd" clip-rule="evenodd"><g><path class="fil0" d="M161.07 16.35c19.33,0 36.83,7.84 49.5,20.5 12.67,12.67 20.5,30.17 20.5,49.5 0,19.33 -7.84,36.83 -20.5,49.5 -12.67,12.67 -30.17,20.5 -49.5,20.5 -19.33,0 -36.83,-7.84 -49.5,-20.5 -12.67,-12.67 -20.5,-30.17 -20.5,-49.5 0,-19.33 7.84,-36.83 20.5,-49.5 12.67,-12.67 30.17,-20.5 49.5,-20.5zm35.35 34.65c-9.05,-9.05 -21.55,-14.65 -35.35,-14.65 -13.8,0 -26.31,5.6 -35.35,14.65 -9.05,9.05 -14.65,21.55 -14.65,35.35 0,13.8 5.6,26.31 14.65,35.35 9.05,9.05 21.55,14.65 35.35,14.65 13.8,0 26.31,-5.6 35.35,-14.65 9.05,-9.05 14.65,-21.55 14.65,-35.35 0,-13.8 -5.6,-26.31 -14.65,-35.35z"/><path class="fil0" d="M35.41 283.64l249.09 0 -0.96 -62.83c-0.17,-11.62 -5.21,-21.76 -14.64,-30.06 -9.57,-8.43 -23.56,-15.07 -41.54,-19.64 -8.58,6.78 -18.24,12.28 -28.67,16.19 -11.69,4.39 -24.3,6.78 -37.4,6.78 -13.14,0 -25.79,-2.42 -37.51,-6.82 -10.44,-3.92 -20.12,-9.46 -28.72,-16.28 -18.88,4.58 -33.73,11.29 -43.86,19.87 -9.74,8.25 -15.02,18.33 -15.14,29.93l-0.65 62.87zm259.2 20l-269.35 -0.04c-5.5,-0.04 -9.93,-4.54 -9.88,-10.04l0.75 -72.94c0.18,-17.8 7.91,-32.94 22.17,-45.01 13.49,-11.42 32.89,-19.97 57.2,-25.23 2.98,-0.62 6.21,0.11 8.67,2.26 7.76,6.8 16.77,12.24 26.63,15.95 9.44,3.55 19.71,5.49 30.48,5.49 10.79,0 21.05,-1.93 30.44,-5.45 9.71,-3.64 18.62,-9 26.34,-15.7 2.33,-2.14 5.63,-3.15 8.94,-2.4 23.63,5.33 42.21,13.89 55.08,25.22 13.74,12.09 21.09,27.21 21.36,44.83l1.16 73.06c0,5.52 -4.48,10 -10,10z"/></g></svg>